<?xml version="1.0" encoding="UTF-8"?>
<svg xmlns="http://www.w3.org/2000/svg" xmlns:xlink="http://www.w3.org/1999/xlink" width="164px" height="164px" viewBox="0 0 164 164" version="1.1">
<g id="surface1">
<path style=" stroke:none;fill-rule:evenodd;fill:rgb(99.607843%,99.607843%,99.607843%);fill-opacity:1;" d="M -0.078125 -0.078125 C 54.585938 -0.078125 109.253906 -0.078125 163.921875 -0.078125 C 163.921875 54.585938 163.921875 109.253906 163.921875 163.921875 C 109.253906 163.921875 54.585938 163.921875 -0.078125 163.921875 C -0.078125 109.253906 -0.078125 54.585938 -0.078125 -0.078125 Z M -0.078125 -0.078125 "/>
<path style=" stroke:none;fill-rule:evenodd;fill:rgb(9.411765%,12.941177%,16.078432%);fill-opacity:1;" d="M 53.570312 22.179688 C 53.546875 41.527344 53.574219 60.90625 53.652344 80.320312 C 53.746094 81.351562 53.933594 82.367188 54.210938 83.359375 C 53.730469 82.367188 53.4375 81.300781 53.332031 80.15625 C 53.226562 61.472656 53.226562 42.789062 53.332031 24.101562 C 53.378906 23.457031 53.460938 22.816406 53.570312 22.179688 Z M 53.570312 22.179688 "/>
<path style=" stroke:none;fill-rule:evenodd;fill:rgb(0.784314%,11.764706%,19.607843%);fill-opacity:1;" d="M 54.210938 83.359375 C 53.933594 82.367188 53.746094 81.351562 53.652344 80.320312 C 53.574219 60.90625 53.546875 41.527344 53.570312 22.179688 C 53.988281 20.457031 54.894531 19.042969 56.296875 17.9375 C 58.449219 16.832031 60.53125 15.605469 62.539062 14.253906 C 65.214844 13.28125 67.882812 13.308594 70.546875 14.335938 C 70.949219 12.546875 71.855469 11.078125 73.273438 9.929688 C 75.140625 8.722656 77.171875 7.949219 79.359375 7.609375 C 81.738281 7.960938 84.085938 8.46875 86.40625 9.128906 C 90.789062 11.144531 92.820312 14.585938 92.492188 19.460938 C 96.710938 20.484375 100.929688 21.523438 105.140625 22.582031 C 109.058594 23.992188 111.4375 26.742188 112.269531 30.828125 C 112.375 49.726562 112.375 68.625 112.269531 87.523438 C 111.863281 89.863281 110.769531 91.8125 108.984375 93.371094 C 106.742188 94.867188 104.5 96.359375 102.257812 97.855469 C 101.84375 98.046875 101.417969 98.207031 100.976562 98.335938 C 99.910156 98.441406 98.84375 98.441406 97.773438 98.335938 C 84.933594 95.253906 72.121094 92.050781 59.335938 88.726562 C 56.882812 87.632812 55.171875 85.84375 54.210938 83.359375 Z M 54.210938 83.359375 "/>
<path style=" stroke:none;fill-rule:evenodd;fill:rgb(10.196079%,30.980393%,43.921569%);fill-opacity:1;" d="M 109.945312 31.632812 C 110.105469 49.832031 110.160156 68.039062 110.109375 86.242188 C 109.847656 88.457031 108.804688 90.21875 106.984375 91.53125 C 106.929688 72.363281 106.878906 53.199219 106.824219 34.03125 C 106.261719 29.949219 104.046875 27.199219 100.179688 25.785156 C 97.351562 25.089844 94.523438 24.398438 91.6875 23.703125 C 91.386719 23.089844 91.28125 22.421875 91.367188 21.703125 C 95.363281 22.714844 99.367188 23.699219 103.382812 24.664062 C 106.195312 25.289062 108.199219 26.917969 109.386719 29.546875 C 109.640625 30.246094 109.828125 30.941406 109.945312 31.632812 Z M 109.945312 31.632812 "/>
<path style=" stroke:none;fill-rule:evenodd;fill:rgb(1.176471%,3.921569%,19.215687%);fill-opacity:1;" d="M 72.953125 22.5 C 72.855469 22.605469 72.722656 22.65625 72.550781 22.664062 C 71.722656 22.492188 70.894531 22.332031 70.070312 22.179688 C 70.042969 23.039062 70.070312 23.890625 70.148438 24.742188 C 70.375 25.105469 70.667969 25.371094 71.03125 25.546875 C 70.964844 25.710938 70.859375 25.734375 70.710938 25.625 C 70.414062 25.4375 70.175781 25.199219 69.988281 24.90625 C 69.882812 23.945312 69.882812 22.984375 69.988281 22.023438 C 70.042969 21.96875 70.09375 21.914062 70.148438 21.859375 C 70.949219 22.132812 71.777344 22.292969 72.632812 22.34375 C 72.605469 20.367188 72.632812 18.390625 72.710938 16.414062 C 72.738281 18.472656 72.816406 20.5 72.953125 22.5 Z M 72.953125 22.5 "/>
<path style=" stroke:none;fill-rule:evenodd;fill:rgb(98.823529%,99.215686%,99.215686%);fill-opacity:1;" d="M 60.140625 19.140625 C 62.628906 19.414062 65.085938 19.894531 67.507812 20.578125 C 67.640625 22.070312 67.71875 23.566406 67.746094 25.0625 C 67.894531 25.726562 68.109375 26.367188 68.386719 26.984375 C 68.632812 27.285156 68.925781 27.527344 69.265625 27.707031 C 76.4375 29.519531 83.621094 31.308594 90.808594 33.070312 C 91.917969 33.027344 92.507812 32.441406 92.570312 31.3125 C 92.648438 29.761719 92.675781 28.214844 92.648438 26.664062 C 94.84375 27.148438 97.035156 27.65625 99.21875 28.1875 C 102.222656 29.164062 103.957031 31.21875 104.421875 34.351562 C 104.527344 53.25 104.527344 72.148438 104.421875 91.046875 C 103.644531 94.304688 101.589844 95.933594 98.257812 95.933594 C 85.863281 92.890625 73.476562 89.847656 61.101562 86.804688 C 57.902344 85.511719 56.113281 83.136719 55.734375 79.679688 C 55.628906 61.207031 55.628906 42.734375 55.734375 24.265625 C 55.984375 21.476562 57.453125 19.769531 60.140625 19.140625 Z M 60.140625 19.140625 "/>
<path style=" stroke:none;fill-rule:evenodd;fill:rgb(1.568628%,10.588235%,18.039216%);fill-opacity:1;" d="M 59.179688 30.671875 C 60.609375 30.640625 61.945312 30.988281 63.179688 31.710938 C 64.582031 33.15625 64.820312 34.785156 63.902344 36.59375 C 63.058594 37.40625 62.070312 37.621094 60.9375 37.234375 C 60.964844 38.199219 60.9375 39.160156 60.859375 40.117188 C 60.191406 40.378906 59.660156 40.21875 59.257812 39.640625 C 59.179688 36.648438 59.152344 33.660156 59.179688 30.671875 Z M 59.179688 30.671875 "/>
<path style=" stroke:none;fill-rule:evenodd;fill:rgb(97.254902%,97.647059%,98.039216%);fill-opacity:1;" d="M 60.9375 32.914062 C 61.824219 32.886719 62.304688 33.316406 62.382812 34.195312 C 62.398438 35.191406 61.917969 35.617188 60.9375 35.476562 C 60.9375 34.621094 60.9375 33.765625 60.9375 32.914062 Z M 60.9375 32.914062 "/>
<path style=" stroke:none;fill-rule:evenodd;fill:rgb(90.588236%,62.352943%,25.098041%);fill-opacity:1;" d="M 81.921875 11.929688 C 85.019531 12.625 86.863281 14.546875 87.445312 17.695312 C 87.5 20.207031 87.550781 22.714844 87.605469 25.226562 C 87.730469 25.511719 87.917969 25.75 88.164062 25.945312 C 88.867188 26.179688 89.535156 26.472656 90.167969 26.828125 C 90.25 27.890625 90.273438 28.960938 90.25 30.03125 C 90.210938 30.125 90.128906 30.179688 90.007812 30.1875 C 83.671875 28.65625 77.347656 27.109375 71.03125 25.546875 C 70.667969 25.371094 70.375 25.105469 70.148438 24.742188 C 70.070312 23.890625 70.042969 23.039062 70.070312 22.179688 C 70.894531 22.332031 71.722656 22.492188 72.550781 22.664062 C 72.722656 22.65625 72.855469 22.605469 72.953125 22.5 C 72.925781 20.097656 72.953125 17.695312 73.03125 15.296875 C 73.726562 12.039062 75.730469 10.675781 79.039062 11.210938 C 80.015625 11.40625 80.976562 11.648438 81.921875 11.929688 Z M 81.921875 11.929688 "/>
<path style=" stroke:none;fill-rule:evenodd;fill:rgb(5.098039%,9.411765%,20.392157%);fill-opacity:1;" d="M 78.71875 22.023438 C 79.21875 21.953125 79.726562 22.058594 80.238281 22.34375 C 80.742188 22.21875 81.25 22.082031 81.757812 21.941406 C 82.03125 21.679688 82.300781 21.441406 82.5625 21.21875 C 82.785156 20.683594 82.625 20.28125 82.078125 20.019531 C 82.292969 19.753906 82.292969 19.484375 82.078125 19.21875 C 82.269531 19.054688 82.429688 18.867188 82.5625 18.65625 C 82.476562 18.546875 82.371094 18.46875 82.242188 18.417969 C 82.421875 18.300781 82.421875 18.164062 82.242188 18.015625 C 81.765625 17.835938 81.417969 17.515625 81.199219 17.054688 C 81.148438 17.1875 81.070312 17.292969 80.960938 17.375 C 80.933594 17.234375 80.878906 17.074219 80.796875 16.898438 C 78.015625 16.019531 76.816406 17.035156 77.195312 19.9375 C 77.21875 19.496094 77.351562 19.414062 77.59375 19.699219 C 77.480469 19.914062 77.535156 20.128906 77.757812 20.339844 C 77.59375 20.507812 77.566406 20.695312 77.675781 20.898438 C 77.96875 21.195312 78.261719 21.488281 78.554688 21.78125 C 78.519531 21.84375 78.464844 21.871094 78.398438 21.859375 C 76.734375 20.558594 76.390625 18.957031 77.355469 17.054688 C 78.449219 16.136719 79.648438 16.003906 80.960938 16.65625 C 83.085938 17.914062 83.566406 19.625 82.398438 21.78125 C 81.226562 22.65625 79.996094 22.734375 78.71875 22.023438 Z M 78.71875 22.023438 "/>
<path style=" stroke:none;fill-rule:evenodd;fill:rgb(0%,12.156863%,20.784314%);fill-opacity:1;" d="M 78.71875 22.023438 C 78.558594 22.050781 78.453125 21.996094 78.398438 21.859375 C 78.464844 21.871094 78.519531 21.84375 78.554688 21.78125 C 78.261719 21.488281 77.96875 21.195312 77.675781 20.898438 C 77.566406 20.695312 77.59375 20.507812 77.757812 20.339844 C 77.535156 20.128906 77.480469 19.914062 77.59375 19.699219 C 77.351562 19.414062 77.21875 19.496094 77.195312 19.9375 C 76.816406 17.035156 78.015625 16.019531 80.796875 16.898438 C 80.878906 17.074219 80.933594 17.234375 80.960938 17.375 C 81.070312 17.292969 81.148438 17.1875 81.199219 17.054688 C 81.417969 17.515625 81.765625 17.835938 82.242188 18.015625 C 82.421875 18.164062 82.421875 18.300781 82.242188 18.417969 C 82.371094 18.46875 82.476562 18.546875 82.5625 18.65625 C 82.429688 18.867188 82.269531 19.054688 82.078125 19.21875 C 82.292969 19.484375 82.292969 19.753906 82.078125 20.019531 C 82.625 20.28125 82.785156 20.683594 82.5625 21.21875 C 82.300781 21.441406 82.03125 21.679688 81.757812 21.941406 C 81.25 22.082031 80.742188 22.21875 80.238281 22.34375 C 79.726562 22.058594 79.21875 21.953125 78.71875 22.023438 Z M 78.71875 22.023438 "/>
<path style=" stroke:none;fill-rule:evenodd;fill:rgb(10.588235%,31.37255%,44.705883%);fill-opacity:1;" d="M 65.585938 15.9375 C 67.160156 16.035156 68.710938 16.300781 70.226562 16.734375 C 70.226562 17.375 70.226562 18.015625 70.226562 18.65625 C 67.859375 18.152344 65.511719 17.566406 63.179688 16.898438 C 63.925781 16.382812 64.726562 16.0625 65.585938 15.9375 Z M 65.585938 15.9375 "/>
<path style=" stroke:none;fill-rule:evenodd;fill:rgb(1.960784%,6.666667%,19.215687%);fill-opacity:1;" d="M 90.25 30.03125 C 90.273438 28.960938 90.25 27.890625 90.167969 26.828125 C 89.535156 26.472656 88.867188 26.179688 88.164062 25.945312 C 87.917969 25.75 87.730469 25.511719 87.605469 25.226562 C 87.550781 22.714844 87.5 20.207031 87.445312 17.695312 C 86.863281 14.546875 85.019531 12.625 81.921875 11.929688 C 82.097656 11.804688 82.3125 11.726562 82.5625 11.691406 C 82.398438 11.636719 82.242188 11.585938 82.078125 11.53125 C 82.507812 11.039062 82.722656 11.171875 82.71875 11.929688 C 83.878906 12.152344 84.867188 12.683594 85.683594 13.53125 C 86.75 14.59375 87.390625 15.875 87.605469 17.375 C 87.660156 19.9375 87.710938 22.5 87.765625 25.0625 C 88.195312 25.976562 88.835938 26.1875 89.6875 25.703125 C 89.785156 26.121094 90.050781 26.492188 90.488281 26.828125 C 90.59375 27.945312 90.59375 29.070312 90.488281 30.1875 C 90.425781 30.101562 90.347656 30.046875 90.25 30.03125 Z M 90.25 30.03125 "/>
<path style=" stroke:none;fill-rule:evenodd;fill:rgb(1.960784%,11.372549%,18.82353%);fill-opacity:1;" d="M 73.59375 33.875 C 75.652344 33.828125 77.121094 34.734375 77.996094 36.59375 C 78.835938 38.550781 78.886719 40.527344 78.15625 42.523438 C 76.816406 44.019531 75.296875 44.207031 73.59375 43.082031 C 71.910156 41.828125 71.109375 40.148438 71.1875 38.039062 C 70.929688 35.988281 71.730469 34.601562 73.59375 33.875 Z M 73.59375 33.875 "/>
<path style=" stroke:none;fill-rule:evenodd;fill:rgb(98.431373%,98.823529%,98.823529%);fill-opacity:1;" d="M 73.75 36.117188 C 75.308594 36.039062 76.242188 36.785156 76.554688 38.359375 C 76.664062 39.222656 76.613281 40.074219 76.394531 40.921875 C 75.902344 41.828125 75.238281 41.964844 74.390625 41.320312 C 73.25 40.191406 72.851562 38.832031 73.191406 37.234375 C 73.296875 36.8125 73.484375 36.441406 73.75 36.117188 Z M 73.75 36.117188 "/>
<path style=" stroke:none;fill-rule:evenodd;fill:rgb(1.568628%,11.372549%,19.215687%);fill-opacity:1;" d="M 67.023438 38.679688 C 66.867188 39.609375 66.8125 40.570312 66.867188 41.5625 C 66.328125 41.628906 65.875 41.46875 65.503906 41.078125 C 65.476562 38.96875 65.398438 36.886719 65.265625 34.835938 C 65.105469 33.957031 65.050781 33.050781 65.101562 32.109375 C 66.9375 32.066406 68.566406 32.601562 69.988281 33.710938 C 70.535156 34.878906 70.695312 36.105469 70.46875 37.398438 C 70.226562 37.851562 69.882812 38.195312 69.429688 38.4375 C 70.296875 39.679688 70.722656 41.039062 70.710938 42.523438 C 70.003906 42.742188 69.441406 42.53125 69.027344 41.882812 C 68.703125 40.859375 68.359375 39.84375 67.984375 38.835938 C 67.683594 38.683594 67.363281 38.628906 67.023438 38.679688 Z M 67.023438 38.679688 "/>
<path style=" stroke:none;fill-rule:evenodd;fill:rgb(97.647059%,98.039216%,98.039216%);fill-opacity:1;" d="M 67.023438 34.351562 C 68.515625 34.53125 68.996094 35.304688 68.46875 36.675781 C 68.007812 36.792969 67.578125 36.710938 67.1875 36.4375 C 67.027344 35.75 66.972656 35.054688 67.023438 34.351562 Z M 67.023438 34.351562 "/>
<path style=" stroke:none;fill-rule:evenodd;fill:rgb(1.176471%,11.764706%,19.607843%);fill-opacity:1;" d="M 86.085938 36.914062 C 86.175781 37.097656 86.359375 37.308594 86.644531 37.554688 C 86.71875 40.542969 86.746094 43.476562 86.726562 46.367188 C 86.21875 46.601562 85.765625 46.492188 85.363281 46.046875 C 85.335938 44.386719 85.257812 42.730469 85.125 41.078125 C 84.710938 42.179688 84.285156 43.273438 83.84375 44.363281 C 83.304688 44.511719 82.851562 44.378906 82.480469 43.960938 C 82.109375 42.738281 81.734375 41.507812 81.359375 40.28125 C 81.304688 41.828125 81.253906 43.375 81.199219 44.921875 C 80.023438 45.339844 79.410156 44.9375 79.359375 43.722656 C 79.453125 41.074219 79.558594 38.433594 79.679688 35.796875 C 80.519531 35.570312 81.242188 35.78125 81.839844 36.4375 C 82.398438 37.976562 82.933594 39.527344 83.441406 41.078125 C 83.929688 39.726562 84.464844 38.394531 85.042969 37.078125 C 85.367188 36.738281 85.714844 36.683594 86.085938 36.914062 Z M 86.085938 36.914062 "/>
<path style=" stroke:none;fill-rule:evenodd;fill:rgb(11.372549%,13.333334%,15.686275%);fill-opacity:1;" d="M 86.085938 36.914062 C 86.382812 36.972656 86.625 37.132812 86.804688 37.398438 C 87.03125 40.328125 87.085938 43.265625 86.964844 46.203125 C 86.902344 46.292969 86.824219 46.347656 86.726562 46.367188 C 86.746094 43.476562 86.71875 40.542969 86.644531 37.554688 C 86.359375 37.308594 86.175781 37.097656 86.085938 36.914062 Z M 86.085938 36.914062 "/>
<path style=" stroke:none;fill-rule:evenodd;fill:rgb(0.784314%,12.156863%,20%);fill-opacity:1;" d="M 94.734375 39 C 95.441406 38.707031 96.054688 38.867188 96.574219 39.476562 C 97.386719 41.300781 98.214844 43.117188 99.054688 44.921875 C 99.039062 43.402344 99.066406 41.855469 99.136719 40.28125 C 99.203125 40.078125 99.335938 39.972656 99.539062 39.960938 C 100.019531 39.917969 100.417969 40.078125 100.738281 40.4375 C 100.820312 43.480469 100.84375 46.523438 100.820312 49.570312 C 100.023438 49.589844 99.410156 49.269531 98.976562 48.609375 C 98.777344 48.136719 98.539062 47.707031 98.257812 47.328125 C 97.632812 46.292969 97.097656 45.199219 96.65625 44.042969 C 96.601562 43.878906 96.492188 43.796875 96.335938 43.804688 C 96.175781 45.230469 96.121094 46.777344 96.171875 48.445312 C 95.714844 48.519531 95.316406 48.410156 94.972656 48.125 C 94.839844 45.097656 94.867188 42.082031 95.054688 39.078125 C 94.957031 39.003906 94.851562 38.976562 94.734375 39 Z M 94.734375 39 "/>
<path style=" stroke:none;fill-rule:evenodd;fill:rgb(1.568628%,2.352941%,4.313726%);fill-opacity:1;" d="M 99.539062 39.960938 C 100.042969 39.722656 100.496094 39.832031 100.898438 40.28125 C 101.003906 43.429688 101.003906 46.578125 100.898438 49.726562 C 99.421875 49.671875 98.539062 48.871094 98.257812 47.328125 C 98.539062 47.707031 98.777344 48.136719 98.976562 48.609375 C 99.410156 49.269531 100.023438 49.589844 100.820312 49.570312 C 100.84375 46.523438 100.820312 43.480469 100.738281 40.4375 C 100.417969 40.078125 100.019531 39.917969 99.539062 39.960938 Z M 99.539062 39.960938 "/>
<path style=" stroke:none;fill-rule:evenodd;fill:rgb(2.352941%,3.137255%,5.490196%);fill-opacity:1;" d="M 65.265625 34.835938 C 65.398438 36.886719 65.476562 38.96875 65.503906 41.078125 C 65.875 41.46875 66.328125 41.628906 66.867188 41.5625 C 66.8125 40.570312 66.867188 39.609375 67.023438 38.679688 C 67.050781 39.695312 67.023438 40.707031 66.945312 41.71875 C 66.34375 41.859375 65.808594 41.699219 65.34375 41.242188 C 65.265625 39.105469 65.238281 36.96875 65.265625 34.835938 Z M 65.265625 34.835938 "/>
<path style=" stroke:none;fill-rule:evenodd;fill:rgb(1.960784%,10.588235%,18.039216%);fill-opacity:1;" d="M 90.40625 37.71875 C 91.019531 37.796875 91.527344 38.0625 91.929688 38.515625 C 92.570312 41.292969 93.210938 44.070312 93.851562 46.84375 C 94.136719 48.113281 93.679688 48.460938 92.492188 47.886719 C 92.1875 47.234375 91.921875 46.570312 91.6875 45.882812 C 91.183594 45.527344 90.621094 45.316406 90.007812 45.242188 C 89.738281 45.789062 89.496094 46.347656 89.289062 46.925781 C 88.105469 47.179688 87.601562 46.726562 87.765625 45.5625 C 88.183594 43.207031 88.824219 40.910156 89.6875 38.679688 C 89.902344 38.332031 90.140625 38.011719 90.40625 37.71875 Z M 90.40625 37.71875 "/>
<path style=" stroke:none;fill-rule:evenodd;fill:rgb(89.019608%,90.980393%,91.764706%);fill-opacity:1;" d="M 90.726562 41.078125 C 91.0625 41.941406 91.273438 42.847656 91.367188 43.804688 C 91 43.722656 90.625 43.671875 90.25 43.640625 C 90.339844 42.773438 90.5 41.917969 90.726562 41.078125 Z M 90.726562 41.078125 "/>
<path style=" stroke:none;fill-rule:evenodd;fill:rgb(7.450981%,9.019608%,10.196079%);fill-opacity:1;" d="M 94.734375 39 C 94.851562 38.976562 94.957031 39.003906 95.054688 39.078125 C 94.867188 42.082031 94.839844 45.097656 94.972656 48.125 C 95.316406 48.410156 95.714844 48.519531 96.171875 48.445312 C 96.121094 46.777344 96.175781 45.230469 96.335938 43.804688 C 96.515625 45.285156 96.542969 46.78125 96.414062 48.289062 C 95.886719 48.703125 95.351562 48.703125 94.8125 48.289062 C 94.734375 45.191406 94.707031 42.09375 94.734375 39 Z M 94.734375 39 "/>
<path style=" stroke:none;fill-rule:evenodd;fill:rgb(0.784314%,0.784314%,1.960784%);fill-opacity:1;" d="M 74.234375 47.648438 C 75.027344 47.707031 74.972656 47.785156 74.070312 47.886719 C 73.753906 48.097656 73.566406 48.390625 73.511719 48.765625 C 73.429688 52.078125 73.40625 55.386719 73.429688 58.695312 C 73.246094 55.363281 73.21875 52 73.351562 48.609375 C 73.457031 48.101562 73.75 47.78125 74.234375 47.648438 Z M 74.234375 47.648438 "/>
<path style=" stroke:none;fill-rule:evenodd;fill:rgb(1.960784%,2.352941%,4.313726%);fill-opacity:1;" d="M 85.28125 50.210938 C 85.699219 50.328125 85.992188 50.597656 86.164062 51.007812 C 86.269531 54.480469 86.269531 57.949219 86.164062 61.421875 C 85.894531 61.863281 85.492188 62.128906 84.960938 62.21875 C 83.992188 62.058594 83.03125 61.84375 82.078125 61.578125 C 82.175781 61.476562 82.308594 61.425781 82.480469 61.421875 C 83.4375 61.792969 84.425781 61.925781 85.445312 61.820312 C 85.738281 61.742188 85.921875 61.554688 86.003906 61.257812 C 86.109375 57.898438 86.109375 54.53125 86.003906 51.171875 C 85.789062 50.824219 85.550781 50.503906 85.28125 50.210938 Z M 85.28125 50.210938 "/>
<path style=" stroke:none;fill-rule:evenodd;fill:rgb(1.568628%,11.372549%,18.82353%);fill-opacity:1;" d="M 60.9375 50.53125 C 63.996094 51.171875 67.039062 51.894531 70.070312 52.691406 C 70.296875 52.765625 70.484375 52.898438 70.628906 53.09375 C 70.761719 53.632812 70.734375 54.167969 70.546875 54.695312 C 70.1875 54.859375 69.8125 54.886719 69.429688 54.773438 C 66.664062 54.027344 63.886719 53.335938 61.101562 52.691406 C 60.527344 52.011719 60.472656 51.292969 60.9375 50.53125 Z M 60.9375 50.53125 "/>
<path style=" stroke:none;fill-rule:evenodd;fill:rgb(1.568628%,1.960784%,3.921569%);fill-opacity:1;" d="M 71.351562 70.867188 C 71.59375 70.871094 71.78125 70.976562 71.910156 71.1875 C 72.015625 75.246094 72.015625 79.304688 71.910156 83.359375 C 71.667969 83.695312 71.347656 83.910156 70.949219 84 C 70.355469 83.890625 69.792969 83.730469 69.265625 83.523438 C 69.960938 83.640625 70.652344 83.667969 71.351562 83.601562 C 71.484375 83.46875 71.617188 83.335938 71.75 83.203125 C 71.855469 79.25 71.855469 75.300781 71.75 71.351562 C 71.582031 71.210938 71.449219 71.050781 71.351562 70.867188 Z M 71.351562 70.867188 "/>
<path style=" stroke:none;fill-rule:evenodd;fill:rgb(1.176471%,11.764706%,19.607843%);fill-opacity:1;" d="M 74.234375 47.648438 C 74.355469 47.542969 74.515625 47.488281 74.710938 47.484375 C 77.960938 48.289062 81.21875 49.066406 84.484375 49.808594 C 84.800781 49.867188 85.066406 50 85.28125 50.210938 C 85.550781 50.503906 85.789062 50.824219 86.003906 51.171875 C 86.109375 54.53125 86.109375 57.898438 86.003906 61.257812 C 85.921875 61.554688 85.738281 61.742188 85.445312 61.820312 C 84.425781 61.925781 83.4375 61.792969 82.480469 61.421875 C 82.308594 61.425781 82.175781 61.476562 82.078125 61.578125 C 81.617188 61.40625 81.136719 61.300781 80.640625 61.257812 C 80.640625 62.113281 80.640625 62.96875 80.640625 63.820312 C 85.167969 64.796875 89.652344 65.945312 94.09375 67.265625 C 94.246094 67.492188 94.378906 67.734375 94.492188 67.984375 C 94.570312 70.816406 94.597656 73.644531 94.570312 76.476562 C 95.808594 76.664062 97.035156 76.902344 98.257812 77.195312 C 98.667969 77.367188 98.9375 77.660156 99.054688 78.078125 C 99.160156 81.996094 99.265625 85.894531 99.375 89.765625 C 98.929688 90.492188 98.289062 90.734375 97.453125 90.488281 C 94.34375 89.738281 91.246094 88.9375 88.164062 88.085938 C 88.046875 87.976562 87.992188 87.84375 88.007812 87.6875 C 87.820312 83.6875 87.796875 79.683594 87.925781 75.671875 C 88.105469 75.414062 88.34375 75.253906 88.648438 75.195312 C 89.097656 75.3125 89.550781 75.417969 90.007812 75.515625 C 90.179688 75.507812 90.3125 75.457031 90.40625 75.351562 C 91.050781 75.515625 91.691406 75.671875 92.328125 75.835938 C 92.425781 74.90625 92.316406 74.023438 92.007812 73.191406 C 88.265625 72.289062 84.527344 71.351562 80.796875 70.390625 C 80.640625 71.234375 80.585938 72.089844 80.640625 72.953125 C 82.152344 73.226562 83.644531 73.574219 85.125 73.992188 C 85.363281 74.234375 85.601562 74.472656 85.84375 74.710938 C 86 78.78125 85.945312 82.835938 85.683594 86.882812 C 85.328125 87.332031 84.875 87.464844 84.320312 87.285156 C 81.117188 86.539062 77.914062 85.789062 74.710938 85.042969 C 74.460938 84.921875 74.300781 84.734375 74.234375 84.484375 C 74.199219 84.253906 74.117188 84.042969 73.992188 83.84375 C 73.886719 80.105469 73.886719 76.367188 73.992188 72.632812 C 74.175781 72.15625 74.523438 71.886719 75.03125 71.828125 C 76.132812 72.070312 77.226562 72.339844 78.316406 72.632812 C 78.4375 72.621094 78.519531 72.566406 78.554688 72.46875 C 78.554688 71.5625 78.554688 70.65625 78.554688 69.75 C 74.949219 69.019531 71.375 68.164062 67.828125 67.1875 C 67.640625 68.035156 67.613281 68.890625 67.746094 69.75 C 68.875 70.101562 70.019531 70.398438 71.1875 70.628906 C 71.277344 70.691406 71.332031 70.769531 71.351562 70.867188 C 71.449219 71.050781 71.582031 71.210938 71.75 71.351562 C 71.855469 75.300781 71.855469 79.25 71.75 83.203125 C 71.617188 83.335938 71.484375 83.46875 71.351562 83.601562 C 70.652344 83.667969 69.960938 83.640625 69.265625 83.523438 C 66.371094 82.925781 63.488281 82.257812 60.617188 81.519531 C 60.371094 81.324219 60.183594 81.085938 60.058594 80.796875 C 59.953125 76.796875 59.953125 72.789062 60.058594 68.789062 C 60.355469 68.453125 60.730469 68.292969 61.179688 68.304688 C 62.65625 68.589844 64.125 68.910156 65.585938 69.265625 C 65.558594 67.878906 65.585938 66.492188 65.664062 65.101562 C 65.808594 64.910156 65.996094 64.777344 66.226562 64.703125 C 69.085938 65.316406 71.96875 65.90625 74.875 66.464844 C 76.085938 66.679688 77.261719 67.027344 78.398438 67.507812 C 78.609375 66.917969 78.609375 66.332031 78.398438 65.742188 C 77.527344 65.5 76.671875 65.203125 75.835938 64.863281 C 70.792969 63.714844 65.800781 62.410156 60.859375 60.9375 C 60.621094 60.425781 60.570312 59.894531 60.699219 59.335938 C 60.757812 59.113281 60.890625 58.953125 61.101562 58.859375 C 66.898438 60.375 72.71875 61.816406 78.554688 63.179688 C 78.554688 62.328125 78.554688 61.472656 78.554688 60.617188 C 76.976562 60.328125 75.429688 59.929688 73.914062 59.417969 C 73.648438 59.238281 73.488281 58.996094 73.429688 58.695312 C 73.40625 55.386719 73.429688 52.078125 73.511719 48.765625 C 73.566406 48.390625 73.753906 48.097656 74.070312 47.886719 C 74.972656 47.785156 75.027344 47.707031 74.234375 47.648438 Z M 74.234375 47.648438 "/>
<path style=" stroke:none;fill-rule:evenodd;fill:rgb(1.960784%,67.843139%,72.549021%);fill-opacity:1;" d="M 75.992188 74.390625 C 78.511719 74.84375 80.996094 75.429688 83.441406 76.15625 C 83.523438 79.035156 83.546875 81.917969 83.523438 84.804688 C 81 84.300781 78.519531 83.660156 76.074219 82.882812 C 75.992188 80.050781 75.96875 77.222656 75.992188 74.390625 Z M 75.992188 74.390625 "/>
<path style=" stroke:none;fill-rule:evenodd;fill:rgb(90.196079%,61.960787%,25.098041%);fill-opacity:1;" d="M 62.21875 71.03125 C 64.398438 71.5625 66.589844 72.066406 68.789062 72.550781 C 69.078125 72.59375 69.320312 72.726562 69.507812 72.953125 C 69.535156 75.710938 69.617188 78.460938 69.75 81.199219 C 67.269531 80.847656 64.8125 80.339844 62.382812 79.679688 C 62.21875 76.796875 62.167969 73.914062 62.21875 71.03125 Z M 62.21875 71.03125 "/>
<path style=" stroke:none;fill-rule:evenodd;fill:rgb(97.647059%,98.039216%,98.431373%);fill-opacity:1;" d="M 80.640625 66.226562 C 84.539062 67.097656 88.4375 68.003906 92.328125 68.945312 C 92.328125 69.585938 92.328125 70.226562 92.328125 70.867188 C 88.398438 70.03125 84.5 69.070312 80.640625 67.984375 C 80.640625 67.398438 80.640625 66.8125 80.640625 66.226562 Z M 80.640625 66.226562 "/>
<path style=" stroke:none;fill-rule:evenodd;fill:rgb(99.215686%,80.392158%,26.666668%);fill-opacity:1;" d="M 84 52.929688 C 84 55.121094 84 57.308594 84 59.5 C 83.84375 59.5 83.679688 59.5 83.523438 59.5 C 83.78125 57.320312 83.941406 55.132812 84 52.929688 Z M 84 52.929688 "/>
<path style=" stroke:none;fill-rule:evenodd;fill:rgb(89.803922%,61.960787%,25.098041%);fill-opacity:1;" d="M 84 52.929688 C 83.941406 55.132812 83.78125 57.320312 83.523438 59.5 C 80.875 58.796875 78.203125 58.15625 75.515625 57.578125 C 75.515625 55.171875 75.515625 52.773438 75.515625 50.367188 C 78.269531 50.964844 80.992188 51.683594 83.679688 52.53125 C 83.824219 52.644531 83.929688 52.777344 84 52.929688 Z M 84 52.929688 "/>
<path style=" stroke:none;fill-rule:evenodd;fill:rgb(2.745098%,5.882353%,18.82353%);fill-opacity:1;" d="M 84 52.929688 C 83.929688 52.777344 83.824219 52.644531 83.679688 52.53125 C 80.992188 51.683594 78.269531 50.964844 75.515625 50.367188 C 75.515625 52.773438 75.515625 55.171875 75.515625 57.578125 C 75.40625 56.375 75.351562 55.148438 75.351562 53.890625 C 75.328125 52.585938 75.410156 51.304688 75.59375 50.046875 C 78.234375 50.761719 80.878906 51.480469 83.523438 52.210938 C 83.679688 52.289062 83.84375 52.371094 84 52.453125 C 84.207031 52.628906 84.207031 52.789062 84 52.929688 Z M 84 52.929688 "/>
<path style=" stroke:none;fill-rule:evenodd;fill:rgb(2.352941%,3.137255%,6.27451%);fill-opacity:1;" d="M 78.554688 72.46875 C 78.519531 72.566406 78.4375 72.621094 78.316406 72.632812 C 77.226562 72.339844 76.132812 72.070312 75.03125 71.828125 C 74.523438 71.886719 74.175781 72.15625 73.992188 72.632812 C 73.886719 76.367188 73.886719 80.105469 73.992188 83.84375 C 74.117188 84.042969 74.199219 84.253906 74.234375 84.484375 C 74.027344 84.394531 73.890625 84.234375 73.832031 84 C 73.726562 80.15625 73.726562 76.3125 73.832031 72.46875 C 74.097656 71.898438 74.550781 71.628906 75.195312 71.671875 C 76.324219 71.886719 77.445312 72.152344 78.554688 72.46875 Z M 78.554688 72.46875 "/>
<path style=" stroke:none;fill-rule:evenodd;fill:rgb(0%,5.098039%,10.196079%);fill-opacity:1;" d="M 110.109375 86.242188 C 110.160156 68.039062 110.105469 49.832031 109.945312 31.632812 C 109.921875 31.460938 109.949219 31.300781 110.027344 31.148438 C 110.082031 31.523438 110.132812 31.898438 110.1875 32.273438 C 110.214844 41.292969 110.242188 50.316406 110.265625 59.335938 C 110.269531 68.425781 110.214844 77.394531 110.109375 86.242188 Z M 110.109375 86.242188 "/>
<path style=" stroke:none;fill-rule:evenodd;fill:rgb(10.980392%,12.941177%,15.294118%);fill-opacity:1;" d="M 90.40625 75.351562 C 90.3125 75.457031 90.179688 75.507812 90.007812 75.515625 C 89.550781 75.417969 89.097656 75.3125 88.648438 75.195312 C 88.34375 75.253906 88.105469 75.414062 87.925781 75.671875 C 87.796875 79.683594 87.820312 83.6875 88.007812 87.6875 C 87.800781 87.597656 87.664062 87.4375 87.605469 87.203125 C 87.5 83.414062 87.5 79.625 87.605469 75.835938 C 87.730469 75.546875 87.917969 75.308594 88.164062 75.113281 C 88.933594 75.007812 89.679688 75.089844 90.40625 75.351562 Z M 90.40625 75.351562 "/>
<path style=" stroke:none;fill-rule:evenodd;fill:rgb(68.235296%,83.137256%,92.54902%);fill-opacity:1;" d="M 136.210938 74.875 C 137.019531 79.585938 135.628906 83.507812 132.046875 86.644531 C 118.96875 94.25 105.945312 101.9375 92.96875 109.707031 C 85.921875 113.011719 78.875 113.011719 71.828125 109.707031 C 58.851562 102.148438 45.824219 94.675781 32.75 87.285156 C 28.671875 84.292969 26.992188 80.261719 27.707031 75.195312 C 28.40625 78.441406 30.089844 81.03125 32.75 82.960938 C 46.230469 90.527344 59.628906 98.214844 72.953125 106.023438 C 77.726562 108.328125 82.691406 108.808594 87.84375 107.464844 C 89.671875 106.875 91.433594 106.125 93.132812 105.222656 C 106.046875 97.429688 119.074219 89.796875 132.210938 82.320312 C 134.449219 80.324219 135.78125 77.84375 136.210938 74.875 Z M 136.210938 74.875 "/>
<path style=" stroke:none;fill-rule:evenodd;fill:rgb(0.392157%,0.392157%,1.176471%);fill-opacity:1;" d="M 99.054688 78.078125 C 99.171875 78.144531 99.253906 78.25 99.296875 78.398438 C 99.375 82.1875 99.402344 85.976562 99.375 89.765625 C 99.265625 85.894531 99.160156 81.996094 99.054688 78.078125 Z M 99.054688 78.078125 "/>
<path style=" stroke:none;fill-rule:evenodd;fill:rgb(1.960784%,68.235296%,72.549021%);fill-opacity:1;" d="M 89.765625 77.757812 C 91.898438 78.207031 94.035156 78.664062 96.171875 79.117188 C 96.523438 79.144531 96.816406 79.277344 97.054688 79.515625 C 97.1875 82.347656 97.160156 85.179688 96.976562 88.007812 C 94.804688 87.421875 92.617188 86.917969 90.40625 86.484375 C 90.234375 86.332031 90.046875 86.199219 89.847656 86.085938 C 89.765625 83.308594 89.742188 80.53125 89.765625 77.757812 Z M 89.765625 77.757812 "/>
<path style=" stroke:none;fill-rule:evenodd;fill:rgb(0%,0%,0.784314%);fill-opacity:1;" d="M 44.28125 115.390625 C 46.847656 115.367188 49.410156 115.390625 51.96875 115.472656 C 52.429688 115.503906 52.855469 115.582031 53.25 115.710938 C 50.316406 115.574219 47.382812 115.519531 44.445312 115.554688 C 44.445312 121.476562 44.445312 127.40625 44.445312 133.328125 C 45.671875 133.328125 46.898438 133.328125 48.125 133.328125 C 48.074219 131.328125 48.128906 129.351562 48.289062 127.40625 C 48.289062 129.433594 48.289062 131.460938 48.289062 133.492188 C 46.953125 133.492188 45.617188 133.492188 44.28125 133.492188 C 44.28125 127.457031 44.28125 121.425781 44.28125 115.390625 Z M 44.28125 115.390625 "/>
<path style=" stroke:none;fill-rule:evenodd;fill:rgb(4.705882%,5.882353%,8.235294%);fill-opacity:1;" d="M 95.53125 127.085938 C 95.691406 125.671875 95.746094 124.230469 95.695312 122.757812 C 95.851562 126.253906 95.90625 129.777344 95.851562 133.328125 C 97.082031 133.328125 98.308594 133.328125 99.539062 133.328125 C 99.539062 127.40625 99.539062 121.476562 99.539062 115.554688 C 97.867188 115.503906 96.214844 115.558594 94.570312 115.710938 C 96.21875 115.394531 97.925781 115.289062 99.695312 115.390625 C 99.695312 121.476562 99.695312 127.5625 99.695312 133.648438 C 98.308594 133.648438 96.921875 133.648438 95.53125 133.648438 C 95.53125 131.460938 95.53125 129.273438 95.53125 127.085938 Z M 95.53125 127.085938 "/>
<path style=" stroke:none;fill-rule:evenodd;fill:rgb(2.745098%,3.529412%,6.666667%);fill-opacity:1;" d="M 113.632812 117.3125 C 113.367188 116.863281 113.101562 116.300781 112.828125 115.632812 C 111.332031 115.5 109.835938 115.527344 108.34375 115.710938 C 108.191406 116.238281 107.976562 116.71875 107.703125 117.15625 C 107.765625 116.589844 107.925781 116.058594 108.1875 115.554688 C 109.835938 115.394531 111.492188 115.339844 113.148438 115.390625 C 113.3125 116.03125 113.46875 116.671875 113.632812 117.3125 Z M 113.632812 117.3125 "/>
<path style=" stroke:none;fill-rule:evenodd;fill:rgb(0%,12.156863%,20.392157%);fill-opacity:1;" d="M 86.085938 116.992188 C 87.445312 119.875 88.859375 122.757812 90.328125 125.640625 C 91.761719 122.328125 93.175781 119.019531 94.570312 115.710938 C 96.214844 115.558594 97.867188 115.503906 99.539062 115.554688 C 99.539062 121.476562 99.539062 127.40625 99.539062 133.328125 C 98.308594 133.328125 97.082031 133.328125 95.851562 133.328125 C 95.90625 129.777344 95.851562 126.253906 95.695312 122.757812 C 95.480469 122.757812 95.375 122.867188 95.375 123.078125 C 94.171875 125.691406 92.972656 128.308594 91.769531 130.929688 C 90.683594 131.136719 89.589844 131.136719 88.484375 130.929688 C 87.242188 128.28125 85.960938 125.667969 84.640625 123.078125 C 84.484375 126.378906 84.429688 129.792969 84.484375 133.328125 C 83.308594 133.328125 82.132812 133.328125 80.960938 133.328125 C 80.960938 127.40625 80.960938 121.476562 80.960938 115.554688 C 82.40625 115.5 83.847656 115.554688 85.28125 115.710938 C 85.503906 116.28125 85.769531 116.710938 86.085938 116.992188 Z M 86.085938 116.992188 "/>
<path style=" stroke:none;fill-rule:evenodd;fill:rgb(0%,12.156863%,20.392157%);fill-opacity:1;" d="M 125.164062 115.390625 C 127.363281 118.996094 129.605469 122.574219 131.890625 126.125 C 132.046875 122.628906 132.101562 119.105469 132.046875 115.554688 C 133.277344 115.554688 134.503906 115.554688 135.734375 115.554688 C 135.734375 121.476562 135.734375 127.40625 135.734375 133.328125 C 134.398438 133.355469 133.0625 133.328125 131.726562 133.25 C 131.222656 132.421875 130.714844 131.59375 130.207031 130.765625 C 130.097656 130.570312 130.015625 130.570312 129.96875 130.765625 C 128.25 128.113281 126.542969 125.550781 124.84375 123.078125 C 124.683594 126.46875 124.628906 129.886719 124.679688 133.328125 C 123.507812 133.328125 122.332031 133.328125 121.15625 133.328125 C 121.15625 127.40625 121.15625 121.476562 121.15625 115.554688 C 122.480469 115.503906 123.789062 115.554688 125.082031 115.710938 C 125.15625 115.617188 125.183594 115.511719 125.164062 115.390625 Z M 125.164062 115.390625 "/>
<path style=" stroke:none;fill-rule:evenodd;fill:rgb(0.392157%,11.764706%,20%);fill-opacity:1;" d="M 36.117188 115.390625 C 40.914062 115.949219 42.859375 118.617188 41.960938 123.398438 C 40.96875 125.992188 39.074219 127.355469 36.273438 127.484375 C 35.15625 127.5625 34.035156 127.589844 32.914062 127.5625 C 32.859375 127.5625 32.804688 127.5625 32.75 127.5625 C 32.59375 129.457031 32.539062 131.378906 32.59375 133.328125 C 31.363281 133.328125 30.136719 133.328125 28.90625 133.328125 C 28.90625 127.40625 28.90625 121.476562 28.90625 115.554688 C 31.339844 115.605469 33.742188 115.550781 36.117188 115.390625 Z M 36.117188 115.390625 "/>
<path style=" stroke:none;fill-rule:evenodd;fill:rgb(98.039216%,98.431373%,98.823529%);fill-opacity:1;" d="M 32.75 119.078125 C 33.875 119.050781 34.996094 119.078125 36.117188 119.15625 C 37.378906 119.414062 37.964844 120.1875 37.875 121.476562 C 37.945312 122.597656 37.464844 123.371094 36.4375 123.800781 C 35.269531 124.027344 34.09375 124.082031 32.914062 123.960938 C 32.753906 122.347656 32.699219 120.71875 32.75 119.078125 Z M 32.75 119.078125 "/>
<path style=" stroke:none;fill-rule:evenodd;fill:rgb(5.098039%,6.27451%,7.843138%);fill-opacity:1;" d="M 129.96875 130.765625 C 130.015625 130.570312 130.097656 130.570312 130.207031 130.765625 C 130.714844 131.59375 131.222656 132.421875 131.726562 133.25 C 133.0625 133.328125 134.398438 133.355469 135.734375 133.328125 C 135.734375 127.40625 135.734375 121.476562 135.734375 115.554688 C 134.503906 115.554688 133.277344 115.554688 132.046875 115.554688 C 132.101562 119.105469 132.046875 122.628906 131.890625 126.125 C 131.890625 122.546875 131.890625 118.96875 131.890625 115.390625 C 133.222656 115.390625 134.558594 115.390625 135.890625 115.390625 C 135.890625 121.476562 135.890625 127.5625 135.890625 133.648438 C 134.503906 133.675781 133.117188 133.648438 131.726562 133.570312 C 131.105469 132.65625 130.519531 131.71875 129.96875 130.765625 Z M 129.96875 130.765625 "/>
<path style=" stroke:none;fill-rule:evenodd;fill:rgb(0%,1.568628%,5.882353%);fill-opacity:1;" d="M 36.117188 115.390625 C 33.742188 115.550781 31.339844 115.605469 28.90625 115.554688 C 28.90625 121.476562 28.90625 127.40625 28.90625 133.328125 C 30.136719 133.328125 31.363281 133.328125 32.59375 133.328125 C 32.539062 131.378906 32.59375 129.457031 32.75 127.5625 C 32.75 129.539062 32.75 131.515625 32.75 133.492188 C 31.417969 133.492188 30.082031 133.492188 28.75 133.492188 C 28.75 127.457031 28.75 121.425781 28.75 115.390625 C 31.203125 115.390625 33.660156 115.390625 36.117188 115.390625 Z M 36.117188 115.390625 "/>
<path style=" stroke:none;fill-rule:evenodd;fill:rgb(0.784314%,11.764706%,19.607843%);fill-opacity:1;" d="M 113.632812 117.3125 C 115.476562 122.632812 117.289062 127.972656 119.078125 133.328125 C 117.664062 133.488281 116.222656 133.542969 114.75 133.492188 C 114.378906 132.3125 114.003906 131.140625 113.632812 129.96875 C 111.546875 129.914062 109.464844 129.96875 107.382812 130.125 C 107.113281 130.890625 106.84375 131.640625 106.585938 132.367188 C 106.347656 132.472656 106.1875 132.742188 106.101562 133.171875 C 104.769531 133.382812 103.433594 133.382812 102.101562 133.171875 C 102.351562 132.4375 102.621094 131.714844 102.898438 131.007812 C 102.890625 130.886719 102.835938 130.804688 102.742188 130.765625 C 104.324219 126.1875 105.980469 121.652344 107.703125 117.15625 C 107.976562 116.71875 108.191406 116.238281 108.34375 115.710938 C 109.835938 115.527344 111.332031 115.5 112.828125 115.632812 C 113.101562 116.300781 113.367188 116.863281 113.632812 117.3125 Z M 113.632812 117.3125 "/>
<path style=" stroke:none;fill-rule:evenodd;fill:rgb(97.254902%,98.039216%,98.039216%);fill-opacity:1;" d="M 110.429688 120.515625 C 110.738281 120.929688 110.976562 121.410156 111.148438 121.960938 C 111.621094 123.453125 112.074219 124.949219 112.507812 126.445312 C 111.175781 126.46875 109.839844 126.445312 108.507812 126.363281 C 109.226562 124.441406 109.867188 122.492188 110.429688 120.515625 Z M 110.429688 120.515625 "/>
<path style=" stroke:none;fill-rule:evenodd;fill:rgb(53.333336%,62.352943%,67.058825%);fill-opacity:1;" d="M 95.695312 122.757812 C 95.746094 124.230469 95.691406 125.671875 95.53125 127.085938 C 95.585938 125.71875 95.53125 124.386719 95.375 123.078125 C 95.375 122.867188 95.480469 122.757812 95.695312 122.757812 Z M 95.695312 122.757812 "/>
<path style=" stroke:none;fill-rule:evenodd;fill:rgb(0.784314%,11.764706%,20%);fill-opacity:1;" d="M 67.984375 115.070312 C 72.332031 114.667969 75.507812 116.378906 77.515625 120.195312 C 79.0625 124.144531 78.53125 127.773438 75.914062 131.085938 C 73.113281 133.570312 69.882812 134.34375 66.226562 133.410156 C 62.898438 132.164062 60.894531 129.789062 60.21875 126.28125 C 59.617188 120.269531 62.203125 116.53125 67.984375 115.070312 Z M 67.984375 115.070312 "/>
<path style=" stroke:none;fill-rule:evenodd;fill:rgb(99.215686%,99.215686%,99.215686%);fill-opacity:1;" d="M 68.945312 118.914062 C 72.21875 119.171875 73.871094 120.957031 73.914062 124.28125 C 73.738281 128.355469 71.65625 130.171875 67.664062 129.726562 C 65.4375 128.660156 64.371094 126.875 64.460938 124.359375 C 64.527344 121.3125 66.019531 119.496094 68.945312 118.914062 Z M 68.945312 118.914062 "/>
<path style=" stroke:none;fill-rule:evenodd;fill:rgb(0%,0%,1.960784%);fill-opacity:1;" d="M 80.796875 115.390625 C 82.351562 115.339844 83.898438 115.394531 85.445312 115.554688 C 85.703125 116.019531 85.917969 116.5 86.085938 116.992188 C 85.769531 116.710938 85.503906 116.28125 85.28125 115.710938 C 83.847656 115.554688 82.40625 115.5 80.960938 115.554688 C 80.960938 121.476562 80.960938 127.40625 80.960938 133.328125 C 82.132812 133.328125 83.308594 133.328125 84.484375 133.328125 C 84.429688 129.792969 84.484375 126.378906 84.640625 123.078125 C 84.640625 126.550781 84.640625 130.019531 84.640625 133.492188 C 83.359375 133.492188 82.078125 133.492188 80.796875 133.492188 C 80.796875 127.457031 80.796875 121.425781 80.796875 115.390625 Z M 80.796875 115.390625 "/>
<path style=" stroke:none;fill-rule:evenodd;fill:rgb(0.392157%,12.156863%,20.392157%);fill-opacity:1;" d="M 53.25 115.710938 C 56.234375 116.320312 57.730469 118.164062 57.734375 121.238281 C 57.828125 123.378906 56.972656 125.003906 55.171875 126.125 C 56.425781 128.574219 57.546875 131.085938 58.539062 133.648438 C 57.089844 133.703125 55.648438 133.648438 54.210938 133.492188 C 53.277344 131.511719 52.339844 129.535156 51.410156 127.5625 C 50.4375 127.40625 49.449219 127.355469 48.445312 127.40625 C 48.394531 127.40625 48.339844 127.40625 48.289062 127.40625 C 48.128906 129.351562 48.074219 131.328125 48.125 133.328125 C 46.898438 133.328125 45.671875 133.328125 44.445312 133.328125 C 44.445312 127.40625 44.445312 121.476562 44.445312 115.554688 C 47.382812 115.519531 50.316406 115.574219 53.25 115.710938 Z M 53.25 115.710938 "/>
<path style=" stroke:none;fill-rule:evenodd;fill:rgb(49.411765%,59.215689%,64.705884%);fill-opacity:1;" d="M 50.851562 119.078125 C 50.046875 119.078125 49.25 119.078125 48.445312 119.078125 C 48.445312 120.679688 48.445312 122.28125 48.445312 123.882812 C 48.289062 122.253906 48.234375 120.601562 48.289062 118.914062 C 49.171875 118.863281 50.027344 118.917969 50.851562 119.078125 Z M 50.851562 119.078125 "/>
<path style=" stroke:none;fill-rule:evenodd;fill:rgb(98.823529%,99.215686%,99.215686%);fill-opacity:1;" d="M 50.851562 119.078125 C 52.460938 118.980469 53.3125 119.726562 53.414062 121.320312 C 53.445312 122.425781 52.964844 123.199219 51.96875 123.640625 C 50.804688 123.847656 49.632812 123.929688 48.445312 123.882812 C 48.445312 122.28125 48.445312 120.679688 48.445312 119.078125 C 49.25 119.078125 50.046875 119.078125 50.851562 119.078125 Z M 50.851562 119.078125 "/>
<path style=" stroke:none;fill-rule:evenodd;fill:rgb(52.549022%,62.352943%,69.01961%);fill-opacity:1;" d="M 44.28125 115.390625 C 44.28125 121.425781 44.28125 127.457031 44.28125 133.492188 C 45.617188 133.492188 46.953125 133.492188 48.289062 133.492188 C 48.289062 131.460938 48.289062 129.433594 48.289062 127.40625 C 48.339844 127.40625 48.394531 127.40625 48.445312 127.40625 C 48.445312 129.484375 48.445312 131.570312 48.445312 133.648438 C 47.007812 133.648438 45.5625 133.648438 44.125 133.648438 C 44.070312 127.539062 44.125 121.453125 44.28125 115.390625 Z M 44.28125 115.390625 "/>
<path style=" stroke:none;fill-rule:evenodd;fill:rgb(3.529412%,7.058824%,12.941177%);fill-opacity:1;" d="M 125.164062 115.390625 C 125.183594 115.511719 125.15625 115.617188 125.082031 115.710938 C 123.789062 115.554688 122.480469 115.503906 121.15625 115.554688 C 121.15625 121.476562 121.15625 127.40625 121.15625 133.328125 C 122.332031 133.328125 123.507812 133.328125 124.679688 133.328125 C 124.628906 129.886719 124.683594 126.46875 124.84375 123.078125 C 124.84375 126.601562 124.84375 130.125 124.84375 133.648438 C 123.507812 133.648438 122.171875 133.648438 120.835938 133.648438 C 120.835938 127.5625 120.835938 121.476562 120.835938 115.390625 C 122.28125 115.390625 123.71875 115.390625 125.164062 115.390625 Z M 125.164062 115.390625 "/>
<path style=" stroke:none;fill-rule:evenodd;fill:rgb(40.000001%,50.588238%,56.078434%);fill-opacity:1;" d="M 80.796875 115.390625 C 80.796875 121.425781 80.796875 127.457031 80.796875 133.492188 C 82.078125 133.492188 83.359375 133.492188 84.640625 133.492188 C 83.335938 133.648438 82.003906 133.703125 80.640625 133.648438 C 80.585938 127.539062 80.640625 121.453125 80.796875 115.390625 Z M 80.796875 115.390625 "/>
<path style=" stroke:none;fill-rule:evenodd;fill:rgb(36.862746%,47.843137%,54.509807%);fill-opacity:1;" d="M 32.75 127.5625 C 32.804688 127.5625 32.859375 127.5625 32.914062 127.5625 C 32.914062 129.59375 32.914062 131.621094 32.914062 133.648438 C 31.496094 133.703125 30.105469 133.648438 28.75 133.492188 C 30.082031 133.492188 31.417969 133.492188 32.75 133.492188 C 32.75 131.515625 32.75 129.539062 32.75 127.5625 Z M 32.75 127.5625 "/>
<path style=" stroke:none;fill-rule:evenodd;fill:rgb(10.980392%,14.117648%,17.254902%);fill-opacity:1;" d="M 102.742188 130.765625 C 102.835938 130.804688 102.890625 130.886719 102.898438 131.007812 C 102.621094 131.714844 102.351562 132.4375 102.101562 133.171875 C 103.433594 133.382812 104.769531 133.382812 106.101562 133.171875 C 106.1875 132.742188 106.347656 132.472656 106.585938 132.367188 C 106.476562 132.796875 106.371094 133.222656 106.265625 133.648438 C 104.765625 133.703125 103.269531 133.648438 101.78125 133.492188 C 102.101562 132.578125 102.421875 131.671875 102.742188 130.765625 Z M 102.742188 130.765625 "/>
<path style=" stroke:none;fill-rule:evenodd;fill:rgb(32.549021%,46.666667%,54.901963%);fill-opacity:1;" d="M 119.078125 133.328125 C 119.164062 133.339844 119.214844 133.394531 119.234375 133.492188 C 117.714844 133.703125 116.222656 133.703125 114.75 133.492188 C 116.222656 133.542969 117.664062 133.488281 119.078125 133.328125 Z M 119.078125 133.328125 "/>
<path style=" stroke:none;fill-rule:evenodd;fill:rgb(1.568628%,10.980392%,19.215687%);fill-opacity:1;" d="M 31.148438 138.9375 C 32.835938 139.15625 33.558594 140.117188 33.3125 141.820312 C 32.578125 143.050781 31.484375 143.53125 30.03125 143.257812 C 29.871094 143.976562 29.816406 144.722656 29.867188 145.5 C 29.546875 145.5 29.226562 145.5 28.90625 145.5 C 28.90625 143.367188 28.90625 141.230469 28.90625 139.09375 C 29.6875 139.148438 30.433594 139.09375 31.148438 138.9375 Z M 31.148438 138.9375 "/>
<path style=" stroke:none;fill-rule:evenodd;fill:rgb(2.745098%,10.980392%,18.039216%);fill-opacity:1;" d="M 97.132812 138.9375 C 97.75 138.851562 98.3125 138.957031 98.816406 139.257812 C 99.507812 141.382812 100.226562 143.492188 100.976562 145.582031 C 99.769531 145.949219 99.183594 145.496094 99.21875 144.21875 C 98.363281 144.21875 97.507812 144.21875 96.65625 144.21875 C 96.546875 144.703125 96.441406 145.179688 96.335938 145.664062 C 95.90625 145.664062 95.480469 145.664062 95.054688 145.664062 C 95.75 143.414062 96.441406 141.171875 97.132812 138.9375 Z M 97.132812 138.9375 "/>
<path style=" stroke:none;fill-rule:evenodd;fill:rgb(1.568628%,11.764706%,19.607843%);fill-opacity:1;" d="M 106.101562 144.539062 C 105.9375 145.191406 105.507812 145.589844 104.820312 145.742188 C 103.703125 146.050781 102.796875 145.753906 102.101562 144.859375 C 102.230469 144.652344 102.390625 144.464844 102.578125 144.300781 C 103.011719 144.511719 103.492188 144.644531 104.023438 144.703125 C 104.394531 144.722656 104.714844 144.617188 104.984375 144.382812 C 105.140625 142.648438 105.195312 140.886719 105.140625 139.09375 C 105.410156 139.09375 105.675781 139.09375 105.945312 139.09375 C 105.890625 140.9375 105.945312 142.753906 106.101562 144.539062 Z M 106.101562 144.539062 "/>
<path style=" stroke:none;fill-rule:evenodd;fill:rgb(0%,2.352941%,8.627451%);fill-opacity:1;" d="M 127.882812 139.898438 C 126.976562 139.921875 126.066406 139.894531 125.164062 139.816406 C 126.015625 139.738281 126.867188 139.710938 127.726562 139.734375 C 127.726562 139.523438 127.726562 139.308594 127.726562 139.09375 C 126.550781 139.09375 125.375 139.09375 124.203125 139.09375 C 124.203125 141.230469 124.203125 143.367188 124.203125 145.5 C 125.375 145.5 126.550781 145.5 127.726562 145.5 C 127.726562 145.289062 127.726562 145.074219 127.726562 144.859375 C 126.839844 144.914062 125.984375 144.859375 125.164062 144.703125 C 126.070312 144.703125 126.976562 144.703125 127.882812 144.703125 C 127.882812 145.023438 127.882812 145.34375 127.882812 145.664062 C 126.550781 145.664062 125.214844 145.664062 123.882812 145.664062 C 123.882812 143.421875 123.882812 141.179688 123.882812 138.9375 C 125.214844 138.9375 126.550781 138.9375 127.882812 138.9375 C 127.882812 139.257812 127.882812 139.578125 127.882812 139.898438 Z M 127.882812 139.898438 "/>
<path style=" stroke:none;fill-rule:evenodd;fill:rgb(1.568628%,10.980392%,18.82353%);fill-opacity:1;" d="M 63.820312 142.617188 C 63.613281 142.746094 63.429688 142.90625 63.261719 143.101562 C 63.183594 143.898438 63.15625 144.699219 63.179688 145.5 C 62.859375 145.5 62.539062 145.5 62.21875 145.5 C 62.21875 143.367188 62.21875 141.230469 62.21875 139.09375 C 62.539062 139.09375 62.859375 139.09375 63.179688 139.09375 C 63.128906 139.980469 63.183594 140.835938 63.34375 141.65625 C 64.210938 140.890625 65.011719 140.035156 65.742188 139.09375 C 66.214844 138.910156 66.695312 138.882812 67.1875 139.015625 C 66.417969 139.933594 65.671875 140.871094 64.945312 141.820312 C 65.644531 143.140625 66.445312 144.394531 67.34375 145.582031 C 66.804688 145.714844 66.269531 145.6875 65.742188 145.5 C 65.179688 144.476562 64.539062 143.515625 63.820312 142.617188 Z M 63.820312 142.617188 "/>
<path style=" stroke:none;fill-rule:evenodd;fill:rgb(1.960784%,12.54902%,20.784314%);fill-opacity:1;" d="M 127.882812 139.898438 C 127.007812 140.054688 126.101562 140.109375 125.164062 140.054688 C 125.164062 140.589844 125.164062 141.125 125.164062 141.65625 C 126.015625 141.65625 126.871094 141.65625 127.726562 141.65625 C 127.726562 142.03125 127.726562 142.40625 127.726562 142.78125 C 126.871094 142.78125 126.015625 142.78125 125.164062 142.78125 C 125.164062 143.421875 125.164062 144.0625 125.164062 144.703125 C 125.984375 144.859375 126.839844 144.914062 127.726562 144.859375 C 127.726562 145.074219 127.726562 145.289062 127.726562 145.5 C 126.550781 145.5 125.375 145.5 124.203125 145.5 C 124.203125 143.367188 124.203125 141.230469 124.203125 139.09375 C 125.375 139.09375 126.550781 139.09375 127.726562 139.09375 C 127.726562 139.308594 127.726562 139.523438 127.726562 139.734375 C 126.867188 139.710938 126.015625 139.738281 125.164062 139.816406 C 126.066406 139.894531 126.976562 139.921875 127.882812 139.898438 Z M 127.882812 139.898438 "/>
<path style=" stroke:none;fill-rule:evenodd;fill:rgb(96.078432%,96.862745%,97.254902%);fill-opacity:1;" d="M 30.03125 140.054688 C 30.683594 139.984375 31.296875 140.089844 31.871094 140.375 C 32.246094 141.898438 31.632812 142.539062 30.03125 142.296875 C 30.03125 141.550781 30.03125 140.804688 30.03125 140.054688 Z M 30.03125 140.054688 "/>
<path style=" stroke:none;fill-rule:evenodd;fill:rgb(1.568628%,11.764706%,19.607843%);fill-opacity:1;" d="M 121.320312 141.015625 C 121.453125 142.539062 121.558594 144.089844 121.640625 145.664062 C 121.210938 145.664062 120.785156 145.664062 120.359375 145.664062 C 120.265625 144.167969 120.1875 142.675781 120.117188 141.179688 C 119.652344 142.371094 119.148438 143.546875 118.59375 144.703125 C 118.328125 144.914062 118.0625 144.914062 117.796875 144.703125 C 117.242188 143.546875 116.738281 142.371094 116.273438 141.179688 C 116.246094 141.847656 116.164062 142.488281 116.03125 143.101562 C 115.875 143.871094 115.820312 144.671875 115.875 145.5 C 115.605469 145.5 115.339844 145.5 115.070312 145.5 C 115.179688 143.367188 115.234375 141.234375 115.234375 139.09375 C 115.605469 139.09375 115.980469 139.09375 116.351562 139.09375 C 116.828125 140.496094 117.441406 141.832031 118.195312 143.101562 C 118.460938 143.046875 118.621094 142.886719 118.675781 142.617188 C 119.113281 141.492188 119.566406 140.371094 120.039062 139.257812 C 120.394531 139.101562 120.769531 139.046875 121.15625 139.09375 C 121.109375 139.769531 121.160156 140.410156 121.320312 141.015625 Z M 121.320312 141.015625 "/>
<path style=" stroke:none;fill-rule:evenodd;fill:rgb(2.352941%,11.764706%,19.215687%);fill-opacity:1;" d="M 108.828125 138.9375 C 110.109375 138.9375 111.390625 138.9375 112.671875 138.9375 C 112.671875 139.308594 112.671875 139.683594 112.671875 140.054688 C 111.816406 140.054688 110.960938 140.054688 110.109375 140.054688 C 110.109375 140.589844 110.109375 141.125 110.109375 141.65625 C 110.90625 141.65625 111.710938 141.65625 112.507812 141.65625 C 112.507812 142.03125 112.507812 142.40625 112.507812 142.78125 C 111.710938 142.78125 110.90625 142.78125 110.109375 142.78125 C 110.109375 143.421875 110.109375 144.0625 110.109375 144.703125 C 111.015625 144.703125 111.921875 144.703125 112.828125 144.703125 C 112.828125 145.023438 112.828125 145.34375 112.828125 145.664062 C 111.496094 145.664062 110.160156 145.664062 108.828125 145.664062 C 108.828125 143.421875 108.828125 141.179688 108.828125 138.9375 Z M 108.828125 138.9375 "/>
<path style=" stroke:none;fill-rule:evenodd;fill:rgb(3.921569%,5.882353%,9.019608%);fill-opacity:1;" d="M 121.320312 141.015625 C 121.160156 140.410156 121.109375 139.769531 121.15625 139.09375 C 120.769531 139.046875 120.394531 139.101562 120.039062 139.257812 C 119.566406 140.371094 119.113281 141.492188 118.675781 142.617188 C 118.621094 142.886719 118.460938 143.046875 118.195312 143.101562 C 117.441406 141.832031 116.828125 140.496094 116.351562 139.09375 C 115.980469 139.09375 115.605469 139.09375 115.234375 139.09375 C 115.234375 141.234375 115.179688 143.367188 115.070312 145.5 C 115.339844 145.5 115.605469 145.5 115.875 145.5 C 115.820312 144.671875 115.875 143.871094 116.03125 143.101562 C 116.03125 143.953125 116.03125 144.808594 116.03125 145.664062 C 115.660156 145.664062 115.285156 145.664062 114.914062 145.664062 C 115.007812 143.421875 115.058594 141.179688 115.070312 138.9375 C 115.5625 138.886719 116.042969 138.9375 116.515625 139.09375 C 117.117188 140.359375 117.679688 141.640625 118.195312 142.9375 C 118.832031 141.695312 119.394531 140.414062 119.875 139.09375 C 120.347656 138.9375 120.828125 138.886719 121.320312 138.9375 C 121.320312 139.628906 121.320312 140.324219 121.320312 141.015625 Z M 121.320312 141.015625 "/>
<path style=" stroke:none;fill-rule:evenodd;fill:rgb(0%,0.784314%,2.352941%);fill-opacity:1;" d="M 132.046875 140.375 C 131.675781 140.03125 131.355469 139.632812 131.085938 139.175781 C 130.828125 139.097656 130.558594 139.070312 130.289062 139.09375 C 130.289062 141.230469 130.289062 143.367188 130.289062 145.5 C 130.554688 145.5 130.820312 145.5 131.085938 145.5 C 131.0625 144.058594 131.085938 142.617188 131.167969 141.179688 C 131.195312 142.648438 131.273438 144.089844 131.40625 145.5 C 131.015625 145.65625 130.589844 145.710938 130.125 145.664062 C 130.125 143.421875 130.125 141.179688 130.125 138.9375 C 130.503906 138.910156 130.878906 138.9375 131.25 139.015625 C 131.578125 139.4375 131.847656 139.890625 132.046875 140.375 Z M 132.046875 140.375 "/>
<path style=" stroke:none;fill-rule:evenodd;fill:rgb(7.450981%,9.411765%,12.156863%);fill-opacity:1;" d="M 106.101562 144.539062 C 105.945312 142.753906 105.890625 140.9375 105.945312 139.09375 C 105.675781 139.09375 105.410156 139.09375 105.140625 139.09375 C 105.195312 140.886719 105.140625 142.648438 104.984375 144.382812 C 104.984375 142.566406 104.984375 140.75 104.984375 138.9375 C 105.410156 138.9375 105.835938 138.9375 106.265625 138.9375 C 106.316406 140.832031 106.261719 142.699219 106.101562 144.539062 Z M 106.101562 144.539062 "/>
<path style=" stroke:none;fill-rule:evenodd;fill:rgb(0.392157%,12.54902%,21.176471%);fill-opacity:1;" d="M 91.53125 145.023438 C 91.308594 144.796875 91.148438 144.53125 91.046875 144.21875 C 90.914062 143.738281 90.671875 143.308594 90.328125 142.9375 C 90.25 142.730469 90.222656 142.519531 90.25 142.296875 C 90.46875 142.273438 90.679688 142.300781 90.890625 142.378906 C 90.996094 142.621094 91.15625 142.808594 91.367188 142.9375 C 91.640625 143.105469 91.855469 143.316406 92.007812 143.578125 C 92.167969 142.113281 92.222656 140.621094 92.171875 139.09375 C 92.4375 139.09375 92.703125 139.09375 92.96875 139.09375 C 92.96875 141.230469 92.96875 143.367188 92.96875 145.5 C 92.332031 145.644531 91.878906 145.429688 91.609375 144.859375 C 91.546875 144.898438 91.519531 144.953125 91.53125 145.023438 Z M 91.53125 145.023438 "/>
<path style=" stroke:none;fill-rule:evenodd;fill:rgb(94.901961%,96.078432%,96.470588%);fill-opacity:1;" d="M 97.9375 140.539062 C 98.199219 141.265625 98.464844 142.011719 98.734375 142.78125 C 98.222656 142.890625 97.714844 143 97.214844 143.101562 C 97.339844 142.222656 97.578125 141.367188 97.9375 140.539062 Z M 97.9375 140.539062 "/>
<path style=" stroke:none;fill-rule:evenodd;fill:rgb(3.137255%,10.980392%,18.431373%);fill-opacity:1;" d="M 44.125 138.773438 C 47.140625 138.992188 48.34375 140.59375 47.726562 143.578125 C 46.605469 145.804688 44.925781 146.363281 42.679688 145.261719 C 40.960938 143.246094 41.015625 141.273438 42.84375 139.335938 C 43.265625 139.097656 43.695312 138.914062 44.125 138.773438 Z M 44.125 138.773438 "/>
<path style=" stroke:none;fill-rule:evenodd;fill:rgb(98.431373%,98.823529%,98.823529%);fill-opacity:1;" d="M 44.601562 139.898438 C 45.953125 140.125 46.59375 140.925781 46.523438 142.296875 C 46.601562 143.648438 45.988281 144.449219 44.683594 144.703125 C 43.808594 144.664062 43.21875 144.238281 42.921875 143.421875 C 42.789062 142.550781 42.839844 141.699219 43.082031 140.859375 C 43.460938 140.285156 43.964844 139.964844 44.601562 139.898438 Z M 44.601562 139.898438 "/>
<path style=" stroke:none;fill-rule:evenodd;fill:rgb(1.960784%,5.882353%,10.980392%);fill-opacity:1;" d="M 91.53125 145.023438 C 91.519531 144.953125 91.546875 144.898438 91.609375 144.859375 C 91.878906 145.429688 92.332031 145.644531 92.96875 145.5 C 92.96875 143.367188 92.96875 141.230469 92.96875 139.09375 C 92.703125 139.09375 92.4375 139.09375 92.171875 139.09375 C 92.222656 140.621094 92.167969 142.113281 92.007812 143.578125 C 92.007812 142.03125 92.007812 140.484375 92.007812 138.9375 C 92.4375 138.9375 92.863281 138.9375 93.289062 138.9375 C 93.289062 141.179688 93.289062 143.421875 93.289062 145.664062 C 92.808594 145.6875 92.328125 145.660156 91.851562 145.582031 C 91.71875 145.402344 91.613281 145.21875 91.53125 145.023438 Z M 91.53125 145.023438 "/>
<path style=" stroke:none;fill-rule:evenodd;fill:rgb(4.313726%,7.058824%,10.980392%);fill-opacity:1;" d="M 89.609375 140.21875 C 90.3125 141.042969 90.902344 141.949219 91.367188 142.9375 C 91.15625 142.808594 90.996094 142.621094 90.890625 142.378906 C 90.679688 142.300781 90.46875 142.273438 90.25 142.296875 C 90.222656 142.519531 90.25 142.730469 90.328125 142.9375 C 90.671875 143.308594 90.914062 143.738281 91.046875 144.21875 C 90.304688 143.234375 89.585938 142.222656 88.886719 141.179688 C 88.804688 142.671875 88.78125 144.167969 88.804688 145.664062 C 88.484375 145.664062 88.164062 145.664062 87.84375 145.664062 C 87.84375 143.421875 87.84375 141.179688 87.84375 138.9375 C 88.8125 138.835938 89.398438 139.261719 89.609375 140.21875 Z M 89.609375 140.21875 "/>
<path style=" stroke:none;fill-rule:evenodd;fill:rgb(0.392157%,12.54902%,21.568628%);fill-opacity:1;" d="M 89.609375 140.21875 C 89.898438 140.746094 90.140625 141.28125 90.328125 141.820312 C 90.160156 141.65625 89.972656 141.628906 89.765625 141.738281 C 89.917969 141.851562 89.945312 141.988281 89.847656 142.140625 C 89.546875 141.832031 89.308594 141.488281 89.125 141.097656 C 88.976562 141.019531 88.816406 140.992188 88.648438 141.015625 C 88.648438 142.511719 88.648438 144.007812 88.648438 145.5 C 88.433594 145.5 88.21875 145.5 88.007812 145.5 C 88.007812 143.367188 88.007812 141.230469 88.007812 139.09375 C 88.292969 139.050781 88.558594 139.101562 88.804688 139.257812 C 89 139.648438 89.265625 139.96875 89.609375 140.21875 Z M 89.609375 140.21875 "/>
<path style=" stroke:none;fill-rule:evenodd;fill:rgb(2.745098%,10.196079%,17.254902%);fill-opacity:1;" d="M 35.15625 138.9375 C 36.171875 138.910156 37.183594 138.9375 38.195312 139.015625 C 39.414062 139.394531 39.921875 140.222656 39.71875 141.5 C 39.644531 142.125 39.351562 142.605469 38.835938 142.9375 C 39.25 143.824219 39.675781 144.707031 40.117188 145.582031 C 39.628906 145.714844 39.148438 145.6875 38.679688 145.5 C 38.3125 144.828125 37.992188 144.132812 37.71875 143.421875 C 37.300781 143.261719 36.875 143.210938 36.4375 143.257812 C 36.4375 144.0625 36.4375 144.859375 36.4375 145.664062 C 36.007812 145.664062 35.582031 145.664062 35.15625 145.664062 C 35.15625 143.421875 35.15625 141.179688 35.15625 138.9375 Z M 35.15625 138.9375 "/>
<path style=" stroke:none;fill-rule:evenodd;fill:rgb(96.470588%,97.254902%,97.254902%);fill-opacity:1;" d="M 36.4375 140.054688 C 37.925781 139.65625 38.59375 140.1875 38.4375 141.65625 C 37.886719 142.199219 37.21875 142.414062 36.4375 142.296875 C 36.4375 141.550781 36.4375 140.804688 36.4375 140.054688 Z M 36.4375 140.054688 "/>
<path style=" stroke:none;fill-rule:evenodd;fill:rgb(2.352941%,10.196079%,17.647059%);fill-opacity:1;" d="M 48.609375 139.09375 C 49.097656 138.882812 49.605469 138.882812 50.128906 139.09375 C 50.566406 140.128906 51.046875 141.144531 51.570312 142.140625 C 52.050781 141.117188 52.53125 140.105469 53.011719 139.09375 C 53.449219 138.917969 53.902344 138.890625 54.375 139.015625 C 53.683594 140.3125 53.019531 141.617188 52.371094 142.9375 C 52.15625 143.832031 52.074219 144.738281 52.132812 145.664062 C 51.703125 145.664062 51.277344 145.664062 50.851562 145.664062 C 50.90625 144.738281 50.824219 143.832031 50.609375 142.9375 C 49.976562 141.625 49.3125 140.34375 48.609375 139.09375 Z M 48.609375 139.09375 "/>
<path style=" stroke:none;fill-rule:evenodd;fill:rgb(2.745098%,11.764706%,19.215687%);fill-opacity:1;" d="M 59.976562 144.703125 C 59.976562 145.023438 59.976562 145.34375 59.976562 145.664062 C 58.644531 145.664062 57.308594 145.664062 55.976562 145.664062 C 55.976562 143.421875 55.976562 141.179688 55.976562 138.9375 C 57.308594 138.9375 58.644531 138.9375 59.976562 138.9375 C 59.976562 139.308594 59.976562 139.683594 59.976562 140.054688 C 59.070312 140.054688 58.164062 140.054688 57.257812 140.054688 C 57.257812 140.589844 57.257812 141.125 57.257812 141.65625 C 58.109375 141.65625 58.964844 141.65625 59.820312 141.65625 C 59.820312 142.03125 59.820312 142.40625 59.820312 142.78125 C 58.964844 142.78125 58.109375 142.78125 57.257812 142.78125 C 57.257812 143.421875 57.257812 144.0625 57.257812 144.703125 C 58.164062 144.703125 59.070312 144.703125 59.976562 144.703125 Z M 59.976562 144.703125 "/>
<path style=" stroke:none;fill-rule:evenodd;fill:rgb(2.745098%,10.588235%,17.647059%);fill-opacity:1;" d="M 82.242188 138.9375 C 82.730469 138.886719 83.210938 138.9375 83.679688 139.09375 C 84.453125 141.253906 85.203125 143.417969 85.921875 145.582031 C 85.445312 145.660156 84.964844 145.6875 84.484375 145.664062 C 84.601562 144.511719 84.09375 144.03125 82.960938 144.21875 C 82.5625 144.246094 82.160156 144.273438 81.757812 144.300781 C 81.636719 144.710938 81.476562 145.113281 81.28125 145.5 C 80.863281 145.6875 80.433594 145.714844 80 145.582031 C 80.792969 143.382812 81.539062 141.167969 82.242188 138.9375 Z M 82.242188 138.9375 "/>
<path style=" stroke:none;fill-rule:evenodd;fill:rgb(94.901961%,96.078432%,96.470588%);fill-opacity:1;" d="M 82.882812 140.539062 C 83.238281 141.292969 83.507812 142.09375 83.679688 142.9375 C 83.144531 142.964844 82.609375 142.9375 82.078125 142.859375 C 82.394531 142.101562 82.664062 141.328125 82.882812 140.539062 Z M 82.882812 140.539062 "/>
<path style=" stroke:none;fill-rule:evenodd;fill:rgb(1.568628%,12.941177%,21.568628%);fill-opacity:1;" d="M 132.046875 140.375 C 132.859375 141.445312 133.609375 142.457031 134.289062 143.421875 C 134.449219 142.007812 134.503906 140.566406 134.453125 139.09375 C 134.71875 139.09375 134.984375 139.09375 135.25 139.09375 C 135.25 141.230469 135.25 143.367188 135.25 145.5 C 134.980469 145.527344 134.710938 145.5 134.453125 145.421875 C 133.9375 144.671875 133.40625 143.949219 132.851562 143.257812 C 132.359375 142.65625 131.90625 142.015625 131.488281 141.335938 C 131.40625 142.726562 131.382812 144.113281 131.40625 145.5 C 131.273438 144.089844 131.195312 142.648438 131.167969 141.179688 C 131.085938 142.617188 131.0625 144.058594 131.085938 145.5 C 130.820312 145.5 130.554688 145.5 130.289062 145.5 C 130.289062 143.367188 130.289062 141.230469 130.289062 139.09375 C 130.558594 139.070312 130.828125 139.097656 131.085938 139.175781 C 131.355469 139.632812 131.675781 140.03125 132.046875 140.375 Z M 132.046875 140.375 "/>
<path style=" stroke:none;fill-rule:evenodd;fill:rgb(3.137255%,11.372549%,18.82353%);fill-opacity:1;" d="M 71.828125 138.9375 C 72.269531 138.886719 72.695312 138.9375 73.109375 139.09375 C 73.703125 140.382812 74.289062 141.664062 74.875 142.9375 C 75.480469 141.683594 76.039062 140.402344 76.554688 139.09375 C 77.042969 138.945312 77.550781 138.890625 78.078125 138.9375 C 78.109375 141.179688 78.164062 143.421875 78.234375 145.664062 C 77.808594 145.664062 77.382812 145.664062 76.953125 145.664062 C 76.9375 144.21875 76.855469 142.777344 76.714844 141.335938 C 76.234375 142.453125 75.753906 143.574219 75.273438 144.703125 C 74.910156 144.929688 74.589844 144.878906 74.3125 144.539062 C 73.875 143.398438 73.394531 142.277344 72.871094 141.179688 C 72.851562 142.65625 72.824219 144.152344 72.789062 145.664062 C 72.417969 145.664062 72.042969 145.664062 71.671875 145.664062 C 71.695312 143.417969 71.75 141.175781 71.828125 138.9375 Z M 71.828125 138.9375 "/>
<path style=" stroke:none;fill-rule:evenodd;fill:rgb(0.784314%,1.176471%,3.921569%);fill-opacity:1;" d="M 132.851562 143.257812 C 133.40625 143.949219 133.9375 144.671875 134.453125 145.421875 C 134.710938 145.5 134.980469 145.527344 135.25 145.5 C 135.25 143.367188 135.25 141.230469 135.25 139.09375 C 134.984375 139.09375 134.71875 139.09375 134.453125 139.09375 C 134.503906 140.566406 134.449219 142.007812 134.289062 143.421875 C 134.289062 141.925781 134.289062 140.429688 134.289062 138.9375 C 134.664062 138.9375 135.039062 138.9375 135.414062 138.9375 C 135.414062 141.179688 135.414062 143.421875 135.414062 145.664062 C 135.035156 145.6875 134.660156 145.660156 134.289062 145.582031 C 133.707031 144.867188 133.226562 144.09375 132.851562 143.257812 Z M 132.851562 143.257812 "/>
<path style=" stroke:none;fill-rule:evenodd;fill:rgb(50.980395%,60.784316%,65.490198%);fill-opacity:1;" d="M 63.5 143.257812 C 63.5 144.113281 63.5 144.96875 63.5 145.820312 C 62.988281 145.871094 62.507812 145.820312 62.0625 145.664062 C 62.488281 145.664062 62.914062 145.664062 63.34375 145.664062 C 63.289062 144.832031 63.34375 144.03125 63.5 143.257812 Z M 63.5 143.257812 "/>
<path style=" stroke:none;fill-rule:evenodd;fill:rgb(0%,0.392157%,2.745098%);fill-opacity:1;" d="M 31.148438 138.9375 C 30.433594 139.09375 29.6875 139.148438 28.90625 139.09375 C 28.90625 141.230469 28.90625 143.367188 28.90625 145.5 C 29.226562 145.5 29.546875 145.5 29.867188 145.5 C 29.816406 144.722656 29.871094 143.976562 30.03125 143.257812 C 30.03125 144.0625 30.03125 144.859375 30.03125 145.664062 C 29.601562 145.664062 29.175781 145.664062 28.75 145.664062 C 28.75 143.421875 28.75 141.179688 28.75 138.9375 C 29.546875 138.9375 30.351562 138.9375 31.148438 138.9375 Z M 31.148438 138.9375 "/>
<path style=" stroke:none;fill-rule:evenodd;fill:rgb(0%,0.784314%,2.745098%);fill-opacity:1;" d="M 63.34375 141.65625 C 63.183594 140.835938 63.128906 139.980469 63.179688 139.09375 C 62.859375 139.09375 62.539062 139.09375 62.21875 139.09375 C 62.21875 141.230469 62.21875 143.367188 62.21875 145.5 C 62.539062 145.5 62.859375 145.5 63.179688 145.5 C 63.15625 144.699219 63.183594 143.898438 63.261719 143.101562 C 63.429688 142.90625 63.613281 142.746094 63.820312 142.617188 C 63.785156 142.871094 63.679688 143.082031 63.5 143.257812 C 63.34375 144.03125 63.289062 144.832031 63.34375 145.664062 C 62.914062 145.664062 62.488281 145.664062 62.0625 145.664062 C 62.0625 143.421875 62.0625 141.179688 62.0625 138.9375 C 62.488281 138.9375 62.914062 138.9375 63.34375 138.9375 C 63.34375 139.84375 63.34375 140.75 63.34375 141.65625 Z M 63.34375 141.65625 "/>
<path style=" stroke:none;fill-rule:evenodd;fill:rgb(49.411765%,59.215689%,64.705884%);fill-opacity:1;" d="M 59.976562 144.703125 C 60.132812 145.039062 60.1875 145.414062 60.140625 145.820312 C 58.722656 145.875 57.332031 145.820312 55.976562 145.664062 C 57.308594 145.664062 58.644531 145.664062 59.976562 145.664062 C 59.976562 145.34375 59.976562 145.023438 59.976562 144.703125 Z M 59.976562 144.703125 "/>
</g>
</svg>
